<svg width="20" height="20" viewBox="0 0 20 20" fill="none" xmlns="http://www.w3.org/2000/svg">
<g clip-path="url(#clip0_2456_337)">
<path d="M5.07994 9.35717C5.02814 9.02336 5.00127 8.68138 5.00127 8.33317C5.00127 4.65127 8.00568 1.6665 11.7118 1.6665C15.4179 1.6665 18.4223 4.65127 18.4223 8.33317C18.4223 9.1649 18.269 9.96105 17.9889 10.6953C17.9308 10.8477 17.9017 10.924 17.8885 10.9835C17.8754 11.0425 17.8703 11.084 17.8689 11.1444C17.8675 11.2053 17.8757 11.2725 17.8923 11.4068L18.2278 14.1319C18.2641 14.4269 18.2822 14.5745 18.2332 14.6817C18.1902 14.7756 18.1138 14.8503 18.0189 14.8911C17.9105 14.9377 17.7635 14.9161 17.4694 14.873L14.815 14.4839C14.6764 14.4636 14.6071 14.4535 14.544 14.4538C14.4816 14.4542 14.4384 14.4588 14.3773 14.4716C14.3155 14.4846 14.2366 14.5142 14.0788 14.5733C13.3427 14.849 12.545 14.9998 11.7118 14.9998C11.3633 14.9998 11.021 14.9734 10.6869 14.9226M6.36095 18.3332C8.8317 18.3332 10.8346 16.2811 10.8346 13.7498C10.8346 11.2185 8.8317 9.1665 6.36095 9.1665C3.8902 9.1665 1.88727 11.2185 1.88727 13.7498C1.88727 14.2587 1.9682 14.7481 2.11759 15.2054C2.18074 15.3988 2.21232 15.4954 2.22268 15.5615C2.2335 15.6304 2.2354 15.6691 2.23137 15.7388C2.22751 15.8055 2.21081 15.8809 2.17742 16.0318L1.66797 18.3332L4.16364 17.9923C4.29986 17.9737 4.36797 17.9644 4.42744 17.9648C4.49007 17.9653 4.52331 17.9687 4.58473 17.9809C4.64306 17.9925 4.72977 18.0231 4.90319 18.0843C5.36013 18.2456 5.85056 18.3332 6.36095 18.3332Z" stroke="currentColor" stroke-width="1.5" stroke-linecap="round" stroke-linejoin="round"/>
</g>
<defs>
<clipPath id="clip0_2456_337">
<rect width="20" height="20" fill="white"/>
</clipPath>
</defs>
</svg>
